<svg xmlns="http://www.w3.org/2000/svg" viewBox="0 0 108.67 22"><defs><style>.cls-1{fill:#fff;}</style></defs><g id="Layer_2" data-name="Layer 2"><g id="Layer_1-2" data-name="Layer 1"><path class="cls-1" d="M79.43,6.15a2,2,0,0,1,.11.64A1.72,1.72,0,0,1,79.07,8a1.79,1.79,0,0,1-1.4.53H75.58V5.08h2.09a2.07,2.07,0,0,1,.82.14,1.75,1.75,0,0,1,.59.37A1.56,1.56,0,0,1,79.43,6.15Z"/><path class="cls-1" d="M87.42,11.59a3.51,3.51,0,0,0-.94-.12,2,2,0,0,0-1.27.36,1.1,1.1,0,0,0-.45.89,1,1,0,0,0,.43.84,1.64,1.64,0,0,0,1,.31,2.08,2.08,0,0,0,1.5-.6,2,2,0,0,0,.57-1.38A4.35,4.35,0,0,0,87.42,11.59Zm0,0a3.51,3.51,0,0,0-.94-.12,2,2,0,0,0-1.27.36,1.1,1.1,0,0,0-.45.89,1,1,0,0,0,.43.84,1.64,1.64,0,0,0,1,.31,2.08,2.08,0,0,0,1.5-.6,2,2,0,0,0,.57-1.38A4.35,4.35,0,0,0,87.42,11.59ZM107.39,0h-42a1.28,1.28,0,0,0-1.28,1.28V20.72A1.28,1.28,0,0,0,65.43,22h42a1.28,1.28,0,0,0,1.28-1.28V1.28A1.28,1.28,0,0,0,107.39,0ZM81.58,8.42a3.94,3.94,0,0,1-.92,1.25,4,4,0,0,1-1.35.81,4.64,4.64,0,0,1-1.68.29h-2v4.61H73.22V2.84h4.41a4.64,4.64,0,0,1,1.68.29,4,4,0,0,1,1.35.81,3.94,3.94,0,0,1,.92,1.25,3.85,3.85,0,0,1,.33,1.6A3.92,3.92,0,0,1,81.58,8.42Zm8.93,7H88.25v-.91h-.14a3.75,3.75,0,0,1-1,.84,2.81,2.81,0,0,1-1.47.35,3.46,3.46,0,0,1-1.25-.22,3.23,3.23,0,0,1-1-.6,2.72,2.72,0,0,1-.93-2.12,2.71,2.71,0,0,1,.26-1.2,2.64,2.64,0,0,1,.74-.92A3.27,3.27,0,0,1,84.58,10,4.76,4.76,0,0,1,86,9.81a6,6,0,0,1,1.39.13,7.57,7.57,0,0,1,.89.27V10a1.4,1.4,0,0,0-.54-1.13,2.07,2.07,0,0,0-1.35-.45,2.54,2.54,0,0,0-2,1L82.68,8.23a5.14,5.14,0,0,1,6.78-.78,3.54,3.54,0,0,1,1.05,2.78Zm4.91,3.78H92.94L94.85,15l-3.6-8.17h2.61L96,12h.12l2.09-5.21h2.55Zm-8.94-7.69a2,2,0,0,0-1.27.36,1.1,1.1,0,0,0-.45.89,1,1,0,0,0,.43.84,1.64,1.64,0,0,0,1,.31,2.08,2.08,0,0,0,1.5-.6,2,2,0,0,0,.57-1.38,4.35,4.35,0,0,0-.83-.3A3.51,3.51,0,0,0,86.48,11.47Z"/><path class="cls-1" d="M4.68,17.55a4.91,4.91,0,0,1-1.54-.23,4.29,4.29,0,0,1-1.35-.68A4.53,4.53,0,0,1,.72,15.53,5.41,5.41,0,0,1,0,14l2.23-.88a3.38,3.38,0,0,0,.85,1.57,2.19,2.19,0,0,0,1.62.62,2.32,2.32,0,0,0,.7-.1A1.84,1.84,0,0,0,6,14.93a1.25,1.25,0,0,0,.58-1.11,1.61,1.61,0,0,0-.12-.63,1.52,1.52,0,0,0-.41-.53,3.61,3.61,0,0,0-.75-.47,10.76,10.76,0,0,0-1.15-.47l-.77-.28a7.18,7.18,0,0,1-1-.47,4.63,4.63,0,0,1-.93-.72,3.76,3.76,0,0,1-.7-1A3,3,0,0,1,.47,8,3.38,3.38,0,0,1,.76,6.59a3.34,3.34,0,0,1,.83-1.12,3.82,3.82,0,0,1,1.27-.75,4.86,4.86,0,0,1,1.66-.27,4.75,4.75,0,0,1,1.64.25,4.09,4.09,0,0,1,1.17.65,3.54,3.54,0,0,1,.78.87,3.85,3.85,0,0,1,.44.89L6.46,8a2.23,2.23,0,0,0-.63-1,1.84,1.84,0,0,0-1.27-.42A2.13,2.13,0,0,0,3.28,7a1.1,1.1,0,0,0-.51.94,1.17,1.17,0,0,0,.49.95,5.37,5.37,0,0,0,1.56.76l.79.27A8.2,8.2,0,0,1,7,10.5a4.22,4.22,0,0,1,1.07.82,3.1,3.1,0,0,1,.68,1.07A3.8,3.8,0,0,1,9,13.79a3.49,3.49,0,0,1-.39,1.69,3.67,3.67,0,0,1-1,1.16,4.19,4.19,0,0,1-1.39.68A5,5,0,0,1,4.68,17.55Z"/><path class="cls-1" d="M10.91,4.73h2.33l3.84,6.64h.14l3.84-6.64h2.35V17.27H21.06V11.09L21.2,9h-.14l-3.19,5.62H16.45L13.24,9H13.1l.14,2.1v6.18H10.91Z"/><path class="cls-1" d="M25.93,4.73h2.36v5h5.28v-5h2.36V17.27H33.57V12H28.29v5.29H25.93Z"/><path class="cls-1" d="M44.22,17.55a6.59,6.59,0,0,1-2.6-.51,6.33,6.33,0,0,1-2.08-1.39,6.44,6.44,0,0,1-1.37-2.08,6.51,6.51,0,0,1-.5-2.57,6.51,6.51,0,0,1,.5-2.57,6.44,6.44,0,0,1,1.37-2.08A6.33,6.33,0,0,1,41.62,5a6.88,6.88,0,0,1,5.2,0A6.33,6.33,0,0,1,48.9,6.35a6.44,6.44,0,0,1,1.37,2.08,6.51,6.51,0,0,1,.5,2.57,6.51,6.51,0,0,1-.5,2.57,6.44,6.44,0,0,1-1.37,2.08A6.33,6.33,0,0,1,46.82,17,6.59,6.59,0,0,1,44.22,17.55Zm0-2.24A4.28,4.28,0,0,0,45.86,15a4.14,4.14,0,0,0,1.33-.87,4,4,0,0,0,.89-1.36A4.56,4.56,0,0,0,48.41,11a4.56,4.56,0,0,0-.33-1.76,4,4,0,0,0-.89-1.36A4.14,4.14,0,0,0,45.86,7a4.36,4.36,0,0,0-3.28,0,4.14,4.14,0,0,0-1.33.87,4,4,0,0,0-.89,1.36A4.56,4.56,0,0,0,40,11a4.56,4.56,0,0,0,.33,1.76,4,4,0,0,0,.89,1.36,4.14,4.14,0,0,0,1.33.87A4.28,4.28,0,0,0,44.22,15.31Z"/><path class="cls-1" d="M56.52,17.55A4.91,4.91,0,0,1,55,17.32a4.29,4.29,0,0,1-1.35-.68,4.53,4.53,0,0,1-1.07-1.11A5.41,5.41,0,0,1,51.84,14l2.23-.88a3.47,3.47,0,0,0,.85,1.57,2.19,2.19,0,0,0,1.62.62,2.44,2.44,0,0,0,.71-.1,1.88,1.88,0,0,0,.61-.28,1.29,1.29,0,0,0,.59-1.11,1.61,1.61,0,0,0-.13-.63,1.52,1.52,0,0,0-.41-.53,3.61,3.61,0,0,0-.75-.47A10.76,10.76,0,0,0,56,11.72l-.77-.28a7.18,7.18,0,0,1-1-.47,4.63,4.63,0,0,1-.93-.72,3.51,3.51,0,0,1-.69-1A2.84,2.84,0,0,1,52.31,8a3.38,3.38,0,0,1,.29-1.38,3.48,3.48,0,0,1,.83-1.12,3.82,3.82,0,0,1,1.27-.75,4.86,4.86,0,0,1,1.66-.27A4.75,4.75,0,0,1,58,4.7a4.09,4.09,0,0,1,1.17.65,3.54,3.54,0,0,1,.78.87,3.85,3.85,0,0,1,.44.89L58.31,8a2.26,2.26,0,0,0-.64-1,1.84,1.84,0,0,0-1.27-.42A2.15,2.15,0,0,0,55.12,7a1.1,1.1,0,0,0-.51.94,1.17,1.17,0,0,0,.49.95,5.37,5.37,0,0,0,1.56.76l.79.27a8.2,8.2,0,0,1,1.37.6,4.22,4.22,0,0,1,1.07.82,3.1,3.1,0,0,1,.68,1.07,3.8,3.8,0,0,1,.24,1.4,3.49,3.49,0,0,1-.39,1.69,3.67,3.67,0,0,1-1,1.16,4.24,4.24,0,0,1-1.38.68A5.09,5.09,0,0,1,56.52,17.55Z"/></g></g></svg>