<svg xmlns="http://www.w3.org/2000/svg" xmlns:xlink="http://www.w3.org/1999/xlink" viewBox="0 0 124.2 87.42"><defs><style>.cls-1{fill:url(#linear-gradient);}</style><linearGradient id="linear-gradient" y1="43.71" x2="124.2" y2="43.71" gradientUnits="userSpaceOnUse"><stop offset="0" stop-color="#fff33b"/><stop offset="0.12" stop-color="#fac73b"/><stop offset="0.26" stop-color="#f59d3b"/><stop offset="0.4" stop-color="#f07b3a"/><stop offset="0.55" stop-color="#ed603a"/><stop offset="0.69" stop-color="#eb4d3a"/><stop offset="0.84" stop-color="#e9423a"/><stop offset="1" stop-color="#e93e3a"/></linearGradient></defs><title>Asset 9menu</title><g id="Layer_2" data-name="Layer 2"><g id="Layer_1-2" data-name="Layer 1"><path class="cls-1" d="M6.21,50.16H117.79a6.34,6.34,0,0,0,6.4-5.93,6.21,6.21,0,0,0-6.2-6.49H6.41A6.33,6.33,0,0,0,0,43.66,6.21,6.21,0,0,0,6.21,50.16Zm0-37.74H117.79a6.33,6.33,0,0,0,6.4-5.92A6.21,6.21,0,0,0,118,0H6.41A6.33,6.33,0,0,0,0,5.92,6.21,6.21,0,0,0,6.21,12.42Zm0,75H117.79a6.34,6.34,0,0,0,6.4-5.93A6.21,6.21,0,0,0,118,75H6.41A6.33,6.33,0,0,0,0,80.92,6.21,6.21,0,0,0,6.21,87.42Z"/></g></g></svg>